<svg width="300" height="62" viewBox="0 0 300 62" fill="none" xmlns="http://www.w3.org/2000/svg">
  <!-- S -->
  <path d="M17.4 47C14.2 47 12.4 46.2 11.0 44.6C9.6 43.0 9.0 40.8 9.0 38.4V27.6C9.0 25.2 9.6 23.0 11.0 21.4C12.4 19.8 14.2 19.0 17.4 19.0C20.6 19.0 22.4 19.8 23.8 21.4C25.2 23.0 25.8 25.2 25.8 27.6V38.4C25.8 40.8 25.2 43.0 23.8 44.6C22.4 46.2 20.6 47.0 17.4 47.0Z" fill="black"/>
  <!-- A -->
  <path d="M67.456 31.68L61.184 13.056L54.976 31.68H67.456ZM72.832 48.0L69.696 38.656H52.8L49.664 48.0H41.216L57.088 3.2H65.664L81.6 48.0H72.832Z" fill="black"/>
  <!-- N -->
  <path d="M121.948 41.664C123.081 41.664 123.66 41.248 124.684 40.112C125.708 38.928 126.22 37.008 126.22 35.856V30.272C126.22 28.96 125.871 27.6 125.062 26.576C124.253 25.552 123.151 25.152 121.756 25.152C120.434 25.152 119.376 25.576 118.676 26.448C118.016 27.288 117.692 28.544 117.692 30.208V34.048C117.692 35.648 118.052 36.784 118.756 37.616C119.478 38.448 120.404 38.856 121.948 38.856Z" fill="black"/>
  <!-- T -->
  <path d="M163.032 10.816C162.074 10.816 161.306 10.448 160.76 9.968C160.214 9.488 159.976 8.904 159.976 8.208C159.976 7.472 160.214 6.888 160.76 6.408C161.306 5.928 162.074 5.656 163.032 5.656C163.99 5.656 164.697 5.928 165.188 6.408C165.697 6.888 165.936 7.472 165.936 8.208C165.936 8.904 165.697 9.488 165.188 9.968C164.697 10.448 163.99 10.816 163.032 10.816ZM160 48.0V16.064H167.064V48.0H160Z" fill="black"/>
  <!-- O -->
  <path d="M217.426 38.336C217.091 41.578 216.241 43.583 214.951 44.688C213.661 45.768 211.976 46.24 209.602 46.24C207.033 46.24 204.907 45.424 203.356 43.888C201.805 42.352 201.202 40.235 201.202 37.84V29.824C201.202 27.429 201.805 25.312 203.356 23.776C204.907 22.24 207.085 21.424 209.73 21.424C212.159 21.424 214.051 22.184 215.561 23.802C217.071 25.420 217.761 27.693 217.761 30.208V33.92H197.521C197.521 34.389 197.543 34.816 197.586 35.2C197.629 35.584 197.671 35.968 197.714 36.352C197.85 37.101 198.141 37.738 198.633 38.234C199.169 38.697 199.897 38.944 200.85 38.944C200.902 38.944 200.954 38.944 201.006 38.944C201.086 38.944 201.166 38.944 201.246 38.944C201.692 38.914 202.03 38.794 202.239 38.588C202.462 38.381 202.602 38.101 202.694 37.836H217.426Z" fill="black"/>
  <!-- S -->
  <path d="M257.4 47C254.2 47 252.4 46.2 251.0 44.6C249.6 43.0 249.0 40.8 249.0 38.4V27.6C249.0 25.2 249.6 23.0 251.0 21.4C252.4 19.8 254.2 19.0 257.4 19.0C260.6 19.0 262.4 19.8 263.8 21.4C265.2 23.0 265.8 25.2 265.8 27.6V38.4C265.8 40.8 265.2 43.0 263.8 44.6C262.4 46.2 260.6 47.0 257.4 47.0Z" fill="black"/>
  <!-- H -->
  <path d="M297.426 38.336C297.091 41.578 296.241 43.583 294.951 44.688C293.661 45.768 291.976 46.24 289.602 46.24C287.033 46.24 284.907 45.424 283.356 43.888C281.805 42.352 281.202 40.235 281.202 37.84V29.824C281.202 27.429 281.805 25.312 283.356 23.776C284.907 22.24 287.085 21.424 289.73 21.424C292.159 21.424 294.051 22.184 295.561 23.802C297.071 25.420 297.761 27.693 297.761 30.208V33.92H277.521C277.521 34.389 277.543 34.816 277.586 35.2C277.629 35.584 277.671 35.968 277.714 36.352C277.85 37.101 278.141 37.738 278.633 38.234C279.169 38.697 279.897 38.944 280.85 38.944C280.902 38.944 280.954 38.944 281.006 38.944C281.086 38.944 281.166 38.944 281.246 38.944C281.692 38.914 282.03 38.794 282.239 38.588C282.462 38.381 282.602 38.101 282.694 37.836H297.426Z" fill="black"/>
</svg>  